<mxfile host="app.diagrams.net" modified="2023-10-25T06:12:54.057Z" agent="Mozilla/5.0 (Windows NT 10.0; Win64; x64) AppleWebKit/537.36 (KHTML, like Gecko) Chrome/118.0.0.0 Safari/537.36 Edg/118.0.2088.61" etag="9EUYS4FSjcVXaZP6uTLM" version="22.0.7" type="github">
  <diagram name="第 1 页" id="26SCo_sWpTrIfOqpweAA">
    <mxGraphModel dx="1852" dy="569" grid="0" gridSize="10" guides="1" tooltips="1" connect="1" arrows="1" fold="1" page="1" pageScale="1" pageWidth="850" pageHeight="1100" math="0" shadow="0">
      <root>
        <mxCell id="0" />
        <mxCell id="1" parent="0" />
        <mxCell id="z6igJ-TTIwddWg3bMRVz-2" value="wms_behaviour_mask 字段的二进制表示：" style="text;whiteSpace=wrap;fontSize=22;" vertex="1" parent="1">
          <mxGeometry x="-740" y="455" width="230" height="70" as="geometry" />
        </mxCell>
        <mxCell id="z6igJ-TTIwddWg3bMRVz-4" value="&lt;font style=&quot;font-size: 31px;&quot;&gt;1&amp;nbsp; &amp;nbsp; &amp;nbsp; 1&amp;nbsp; &amp;nbsp; &amp;nbsp; 1&amp;nbsp; &amp;nbsp; &amp;nbsp; 1&amp;nbsp; &amp;nbsp; &amp;nbsp; 1&amp;nbsp; &amp;nbsp; &amp;nbsp; 1&amp;nbsp; &amp;nbsp; &amp;nbsp; 1&lt;/font&gt;" style="text;html=1;strokeColor=none;fillColor=none;align=center;verticalAlign=middle;whiteSpace=wrap;rounded=0;" vertex="1" parent="1">
          <mxGeometry x="-517" y="480" width="517" height="70" as="geometry" />
        </mxCell>
        <mxCell id="z6igJ-TTIwddWg3bMRVz-5" value="拣货是否下架" style="text;html=1;strokeColor=none;fillColor=none;align=center;verticalAlign=middle;whiteSpace=wrap;rounded=0;fontSize=13;" vertex="1" parent="1">
          <mxGeometry x="-80" y="425" width="60" height="30" as="geometry" />
        </mxCell>
        <mxCell id="z6igJ-TTIwddWg3bMRVz-8" style="edgeStyle=orthogonalEdgeStyle;rounded=0;orthogonalLoop=1;jettySize=auto;html=1;" edge="1" parent="1" source="z6igJ-TTIwddWg3bMRVz-5">
          <mxGeometry relative="1" as="geometry">
            <mxPoint x="-50" y="500" as="targetPoint" />
          </mxGeometry>
        </mxCell>
        <mxCell id="z6igJ-TTIwddWg3bMRVz-9" value="拣货缺货" style="text;whiteSpace=wrap;fontSize=13;verticalAlign=top;" vertex="1" parent="1">
          <mxGeometry x="-150" y="420" width="60" height="40" as="geometry" />
        </mxCell>
        <mxCell id="z6igJ-TTIwddWg3bMRVz-10" style="edgeStyle=orthogonalEdgeStyle;rounded=0;orthogonalLoop=1;jettySize=auto;html=1;" edge="1" parent="1" source="z6igJ-TTIwddWg3bMRVz-9">
          <mxGeometry relative="1" as="geometry">
            <mxPoint x="-120" y="500" as="targetPoint" />
          </mxGeometry>
        </mxCell>
        <mxCell id="z6igJ-TTIwddWg3bMRVz-13" value="爆款拣货" style="text;whiteSpace=wrap;fontSize=13;align=center;" vertex="1" parent="1">
          <mxGeometry x="-288.5" y="420" width="60" height="40" as="geometry" />
        </mxCell>
        <mxCell id="z6igJ-TTIwddWg3bMRVz-14" style="edgeStyle=orthogonalEdgeStyle;rounded=0;orthogonalLoop=1;jettySize=auto;html=1;entryX=0.5;entryY=0.286;entryDx=0;entryDy=0;entryPerimeter=0;" edge="1" parent="1" source="z6igJ-TTIwddWg3bMRVz-13" target="z6igJ-TTIwddWg3bMRVz-4">
          <mxGeometry relative="1" as="geometry" />
        </mxCell>
        <mxCell id="z6igJ-TTIwddWg3bMRVz-15" value="正在拣货" style="text;whiteSpace=wrap;fontSize=13;align=center;" vertex="1" parent="1">
          <mxGeometry x="-360" y="420" width="60" height="40" as="geometry" />
        </mxCell>
        <mxCell id="z6igJ-TTIwddWg3bMRVz-16" style="edgeStyle=orthogonalEdgeStyle;rounded=0;orthogonalLoop=1;jettySize=auto;html=1;entryX=0.362;entryY=0.286;entryDx=0;entryDy=0;entryPerimeter=0;" edge="1" parent="1" source="z6igJ-TTIwddWg3bMRVz-15" target="z6igJ-TTIwddWg3bMRVz-4">
          <mxGeometry relative="1" as="geometry" />
        </mxCell>
        <mxCell id="z6igJ-TTIwddWg3bMRVz-17" value="等待填充出库价" style="text;whiteSpace=wrap;fontSize=13;align=center;" vertex="1" parent="1">
          <mxGeometry x="-430" y="420" width="60" height="40" as="geometry" />
        </mxCell>
        <mxCell id="z6igJ-TTIwddWg3bMRVz-18" style="edgeStyle=orthogonalEdgeStyle;rounded=0;orthogonalLoop=1;jettySize=auto;html=1;entryX=0.226;entryY=0.286;entryDx=0;entryDy=0;entryPerimeter=0;" edge="1" parent="1" source="z6igJ-TTIwddWg3bMRVz-17" target="z6igJ-TTIwddWg3bMRVz-4">
          <mxGeometry relative="1" as="geometry" />
        </mxCell>
        <mxCell id="z6igJ-TTIwddWg3bMRVz-19" value="直发" style="text;whiteSpace=wrap;fontSize=13;align=center;" vertex="1" parent="1">
          <mxGeometry x="-500" y="420" width="60" height="40" as="geometry" />
        </mxCell>
        <mxCell id="z6igJ-TTIwddWg3bMRVz-20" style="edgeStyle=orthogonalEdgeStyle;rounded=0;orthogonalLoop=1;jettySize=auto;html=1;entryX=0.091;entryY=0.286;entryDx=0;entryDy=0;entryPerimeter=0;" edge="1" parent="1" source="z6igJ-TTIwddWg3bMRVz-19" target="z6igJ-TTIwddWg3bMRVz-4">
          <mxGeometry relative="1" as="geometry" />
        </mxCell>
      </root>
    </mxGraphModel>
  </diagram>
</mxfile>
